<svg width="115" height="44" viewBox="0 0 115 44" fill="none" xmlns="http://www.w3.org/2000/svg">
<path d="M10.7935 22.698C11.8015 22.698 12.6895 22.578 13.4575 22.338C14.2375 22.086 14.8855 21.738 15.4015 21.294C15.9295 20.838 16.3255 20.298 16.5895 19.674C16.8535 19.05 16.9855 18.36 16.9855 17.604C16.9855 16.068 16.4815 14.91 15.4735 14.13C14.4655 13.35 12.9535 12.96 10.9375 12.96H7.12152V22.698H10.7935ZM22.7095 36H19.6135C18.9775 36 18.5095 35.754 18.2095 35.262L11.5135 26.046C11.3095 25.758 11.0875 25.554 10.8475 25.434C10.6195 25.302 10.2595 25.236 9.76752 25.236H7.12152V36H3.64752V10.206H10.9375C12.5695 10.206 13.9795 10.374 15.1675 10.71C16.3555 11.034 17.3335 11.508 18.1015 12.132C18.8815 12.756 19.4575 13.512 19.8295 14.4C20.2015 15.276 20.3875 16.26 20.3875 17.352C20.3875 18.264 20.2435 19.116 19.9555 19.908C19.6675 20.7 19.2475 21.414 18.6955 22.05C18.1555 22.674 17.4895 23.208 16.6975 23.652C15.9175 24.096 15.0295 24.432 14.0335 24.66C14.4775 24.912 14.8615 25.278 15.1855 25.758L22.7095 36ZM31.9877 17.478C33.3197 17.478 34.5197 17.7 35.5877 18.144C36.6557 18.588 37.5677 19.218 38.3237 20.034C39.0797 20.85 39.6557 21.84 40.0517 23.004C40.4597 24.156 40.6637 25.446 40.6637 26.874C40.6637 28.314 40.4597 29.61 40.0517 30.762C39.6557 31.914 39.0797 32.898 38.3237 33.714C37.5677 34.53 36.6557 35.16 35.5877 35.604C34.5197 36.036 33.3197 36.252 31.9877 36.252C30.6437 36.252 29.4317 36.036 28.3517 35.604C27.2837 35.16 26.3717 34.53 25.6157 33.714C24.8597 32.898 24.2777 31.914 23.8697 30.762C23.4737 29.61 23.2757 28.314 23.2757 26.874C23.2757 25.446 23.4737 24.156 23.8697 23.004C24.2777 21.84 24.8597 20.85 25.6157 20.034C26.3717 19.218 27.2837 18.588 28.3517 18.144C29.4317 17.7 30.6437 17.478 31.9877 17.478ZM31.9877 33.75C33.7877 33.75 35.1317 33.15 36.0197 31.95C36.9077 30.738 37.3517 29.052 37.3517 26.892C37.3517 24.72 36.9077 23.028 36.0197 21.816C35.1317 20.604 33.7877 19.998 31.9877 19.998C31.0757 19.998 30.2777 20.154 29.5937 20.466C28.9217 20.778 28.3577 21.228 27.9017 21.816C27.4577 22.404 27.1217 23.13 26.8937 23.994C26.6777 24.846 26.5697 25.812 26.5697 26.892C26.5697 29.052 27.0137 30.738 27.9017 31.95C28.8017 33.15 30.1637 33.75 31.9877 33.75ZM50.009 36.288C48.569 36.288 47.459 35.886 46.679 35.082C45.911 34.278 45.527 33.12 45.527 31.608V20.448H43.331C43.139 20.448 42.977 20.394 42.845 20.286C42.713 20.166 42.647 19.986 42.647 19.746V18.468L45.635 18.09L46.373 12.456C46.409 12.276 46.487 12.132 46.607 12.024C46.739 11.904 46.907 11.844 47.111 11.844H48.731V18.126H54.005V20.448H48.731V31.392C48.731 32.16 48.917 32.73 49.289 33.102C49.661 33.474 50.141 33.66 50.729 33.66C51.065 33.66 51.353 33.618 51.593 33.534C51.845 33.438 52.061 33.336 52.241 33.228C52.421 33.12 52.571 33.024 52.691 32.94C52.823 32.844 52.937 32.796 53.033 32.796C53.201 32.796 53.351 32.898 53.483 33.102L54.419 34.632C53.867 35.148 53.201 35.556 52.421 35.856C51.641 36.144 50.837 36.288 50.009 36.288ZM67.1954 27.792C65.7194 27.84 64.4594 27.96 63.4154 28.152C62.3834 28.332 61.5374 28.572 60.8774 28.872C60.2294 29.172 59.7554 29.526 59.4554 29.934C59.1674 30.342 59.0234 30.798 59.0234 31.302C59.0234 31.782 59.1014 32.196 59.2574 32.544C59.4134 32.892 59.6234 33.18 59.8874 33.408C60.1634 33.624 60.4814 33.786 60.8414 33.894C61.2134 33.99 61.6094 34.038 62.0294 34.038C62.5934 34.038 63.1094 33.984 63.5774 33.876C64.0454 33.756 64.4834 33.588 64.8914 33.372C65.3114 33.156 65.7074 32.898 66.0794 32.598C66.4634 32.298 66.8354 31.956 67.1954 31.572V27.792ZM56.8454 20.34C57.8534 19.368 58.9394 18.642 60.1034 18.162C61.2674 17.682 62.5574 17.442 63.9734 17.442C64.9934 17.442 65.8994 17.61 66.6914 17.946C67.4834 18.282 68.1494 18.75 68.6894 19.35C69.2294 19.95 69.6374 20.676 69.9134 21.528C70.1894 22.38 70.3274 23.316 70.3274 24.336V36H68.9054C68.5934 36 68.3534 35.952 68.1854 35.856C68.0174 35.748 67.8854 35.544 67.7894 35.244L67.4294 33.516C66.9494 33.96 66.4814 34.356 66.0254 34.704C65.5694 35.04 65.0894 35.328 64.5854 35.568C64.0814 35.796 63.5414 35.97 62.9654 36.09C62.4014 36.222 61.7714 36.288 61.0754 36.288C60.3674 36.288 59.7014 36.192 59.0774 36C58.4534 35.796 57.9074 35.496 57.4394 35.1C56.9834 34.704 56.6174 34.206 56.3414 33.606C56.0774 32.994 55.9454 32.274 55.9454 31.446C55.9454 30.726 56.1434 30.036 56.5394 29.376C56.9354 28.704 57.5774 28.11 58.4654 27.594C59.3534 27.078 60.5114 26.658 61.9394 26.334C63.3674 25.998 65.1194 25.806 67.1954 25.758V24.336C67.1954 22.92 66.8894 21.852 66.2774 21.132C65.6654 20.4 64.7714 20.034 63.5954 20.034C62.8034 20.034 62.1374 20.136 61.5974 20.34C61.0694 20.532 60.6074 20.754 60.2114 21.006C59.8274 21.246 59.4914 21.468 59.2034 21.672C58.9274 21.864 58.6514 21.96 58.3754 21.96C58.1594 21.96 57.9734 21.906 57.8174 21.798C57.6614 21.678 57.5294 21.534 57.4214 21.366L56.8454 20.34ZM78.2319 20.412C78.6279 19.968 79.0479 19.566 79.4919 19.206C79.9359 18.846 80.4039 18.54 80.8959 18.288C81.3999 18.024 81.9279 17.826 82.4799 17.694C83.0439 17.55 83.6499 17.478 84.2979 17.478C85.2939 17.478 86.1699 17.646 86.9259 17.982C87.6939 18.306 88.3299 18.774 88.8339 19.386C89.3499 19.986 89.7399 20.712 90.0039 21.564C90.2679 22.416 90.3999 23.358 90.3999 24.39V36H87.1779V24.39C87.1779 23.01 86.8599 21.942 86.2239 21.186C85.5999 20.418 84.6459 20.034 83.3619 20.034C82.4139 20.034 81.5259 20.262 80.6979 20.718C79.8819 21.174 79.1259 21.792 78.4299 22.572V36H75.2079V17.766H77.1339C77.5899 17.766 77.8719 17.988 77.9799 18.432L78.2319 20.412ZM96.9336 8.478C97.4376 9.33 97.7796 10.23 97.9596 11.178C98.1396 12.126 98.1576 13.062 98.0136 13.986C97.8696 14.91 97.5696 15.798 97.1136 16.65C96.6576 17.502 96.0516 18.258 95.2956 18.918L94.3236 18.288C94.1436 18.18 94.0596 18.042 94.0716 17.874C94.0956 17.694 94.1556 17.55 94.2516 17.442C94.5636 17.058 94.8276 16.596 95.0436 16.056C95.2716 15.504 95.4156 14.916 95.4756 14.292C95.5476 13.656 95.5176 13.002 95.3856 12.33C95.2656 11.658 95.0196 11.01 94.6476 10.386C94.4916 10.134 94.4436 9.912 94.5036 9.72C94.5756 9.516 94.7256 9.366 94.9536 9.27L96.9336 8.478ZM112.23 20.772C112.086 21.036 111.864 21.168 111.564 21.168C111.384 21.168 111.18 21.102 110.952 20.97C110.724 20.838 110.442 20.694 110.106 20.538C109.782 20.37 109.392 20.22 108.936 20.088C108.48 19.944 107.94 19.872 107.316 19.872C106.776 19.872 106.29 19.944 105.858 20.088C105.426 20.22 105.054 20.406 104.742 20.646C104.442 20.886 104.208 21.168 104.04 21.492C103.884 21.804 103.806 22.146 103.806 22.518C103.806 22.986 103.938 23.376 104.202 23.688C104.478 24 104.838 24.27 105.282 24.498C105.726 24.726 106.23 24.93 106.794 25.11C107.358 25.278 107.934 25.464 108.522 25.668C109.122 25.86 109.704 26.076 110.268 26.316C110.832 26.556 111.336 26.856 111.78 27.216C112.224 27.576 112.578 28.02 112.842 28.548C113.118 29.064 113.256 29.688 113.256 30.42C113.256 31.26 113.106 32.04 112.806 32.76C112.506 33.468 112.062 34.086 111.474 34.614C110.886 35.13 110.166 35.538 109.314 35.838C108.462 36.138 107.478 36.288 106.362 36.288C105.09 36.288 103.938 36.084 102.906 35.676C101.874 35.256 100.998 34.722 100.278 34.074L101.034 32.85C101.13 32.694 101.244 32.574 101.376 32.49C101.508 32.406 101.676 32.364 101.88 32.364C102.096 32.364 102.324 32.448 102.564 32.616C102.804 32.784 103.092 32.97 103.428 33.174C103.776 33.378 104.196 33.564 104.688 33.732C105.18 33.9 105.792 33.984 106.524 33.984C107.148 33.984 107.694 33.906 108.162 33.75C108.63 33.582 109.02 33.36 109.332 33.084C109.644 32.808 109.872 32.49 110.016 32.13C110.172 31.77 110.25 31.386 110.25 30.978C110.25 30.474 110.112 30.06 109.836 29.736C109.572 29.4 109.218 29.118 108.774 28.89C108.33 28.65 107.82 28.446 107.244 28.278C106.68 28.098 106.098 27.912 105.498 27.72C104.91 27.528 104.328 27.312 103.752 27.072C103.188 26.82 102.684 26.508 102.24 26.136C101.796 25.764 101.436 25.308 101.16 24.768C100.896 24.216 100.764 23.55 100.764 22.77C100.764 22.074 100.908 21.408 101.196 20.772C101.484 20.124 101.904 19.56 102.456 19.08C103.008 18.588 103.686 18.198 104.49 17.91C105.294 17.622 106.212 17.478 107.244 17.478C108.444 17.478 109.518 17.67 110.466 18.054C111.426 18.426 112.254 18.942 112.95 19.602L112.23 20.772Z" fill="#1D1D1D"/>
</svg>
